<svg xmlns="http://www.w3.org/2000/svg" width="31" height="30" viewBox="0 0 31 30">
  <path fill="#FFF" fill-rule="evenodd" d="M53.0892857,30 C44.7557033,30 38,23.2842712 38,15 C38,6.71572875 44.7557033,1.77635684e-15 53.0892857,1.77635684e-15 C61.4228681,1.77635684e-15 68.1785714,6.71572875 68.1785714,15 C68.1785714,23.2842712 61.4228681,30 53.0892857,30 Z M56.2994512,15.006447 L56.5714286,12.154647 L54.2000768,12.154647 L54.2000768,10.4784367 C54.2000768,9.84831618 54.5875016,9.70143755 54.859999,9.70143755 C55.1324965,9.70143755 56.5339862,9.70143755 56.5339862,9.70143755 L56.5339862,6.93260722 L54.2276386,6.92307692 C51.6690748,6.92307692 51.0866375,8.98778681 51.0866375,10.3091339 L51.0866375,12.1540864 L49.6071429,12.1540864 L49.6071429,15.006447 L51.0866375,15.006447 C51.0866375,18.6672006 51.0866375,23.0769231 51.0866375,23.0769231 L54.1990367,23.0769231 C54.1990367,23.0769231 54.1990367,18.624034 54.1990367,15.006447 L56.2994512,15.006447 Z" transform="translate(-38)"/>
</svg>
