<svg xmlns="http://www.w3.org/2000/svg" width="75" height="80" viewBox="0 0 75 80">
  <path fill="#FFF" d="M7.5,35.4418605 C7.5,35.4418605 7.59259259,35.3488372 7.59259259,35.3488372 L9.62962963,33.2093023 L8.51851852,33.0232558 C8.05555556,33.0232558 7.68518519,32.4651163 7.77777778,32 C7.77777778,31.5348837 8.33333333,31.1627907 8.7962963,31.255814 L11.2962963,31.627907 L13.7962963,29.1162791 L12.6851852,28.9302326 C12.2222222,28.9302326 11.8518519,28.372093 11.9444444,27.9069767 C11.9444444,27.4418605 12.5,27.0697674 12.962963,27.1627907 L15.3703704,27.3488372 L17.8703704,24.8372093 L16.7592593,24.6511628 C16.2962963,24.6511628 15.9259259,24.0930233 16.0185185,23.627907 C16.0185185,23.1627907 16.5740741,22.7906977 17.037037,22.8837209 L19.537037,23.255814 L22.037037,20.744186 L20.9259259,20.5581395 C20.462963,20.5581395 20.0925926,20 20.1851852,19.5348837 C20.1851852,19.0697674 20.7407407,18.6976744 21.2037037,18.7906977 L23.7037037,19.1627907 L34.9074074,7.34883721 L34.6296296,7.06976744 C34.3518519,6.79069767 34.3518519,6.41860465 34.4444444,6.04651163 L36.2962963,1.20930233 C36.3888889,0.930232558 36.6666667,0.744186047 36.9444444,0.651162791 C37.2222222,0.651162791 37.5925926,0.744186047 37.7777778,0.930232558 L45.6481481,8.8372093 C45.9259259,9.02325581 46.0185185,9.39534884 45.9259259,9.6744186 C45.8333333,9.95348837 45.6481481,10.2325581 45.3703704,10.3255814 L40.5555556,12.1860465 C40.3703704,12.2790698 40.2777778,12.2790698 40.1851852,12.2790698 C39.9074074,12.2790698 39.7222222,12.1860465 39.537037,12 L39.2592593,11.7209302 L30.8333333,20.1860465 L31.8518519,20.372093 C32.3148148,20.372093 32.6851852,20.9302326 32.5925926,21.3953488 C32.5,21.8604651 32.1296296,22.2325581 31.6666667,22.2325581 C31.6666667,22.2325581 31.5740741,22.2325581 31.5740741,22.2325581 L29.2592593,21.8604651 L26.7592593,24.372093 L27.7777778,24.5581395 C28.2407407,24.5581395 28.6111111,25.1162791 28.5185185,25.5813953 C28.4259259,26.0465116 28.0555556,26.4186047 27.5925926,26.4186047 C27.5925926,26.4186047 27.5,26.4186047 27.5,26.4186047 L25.1851852,26.0465116 L22.6851852,28.5581395 L23.7037037,28.744186 C24.1666667,28.744186 24.537037,29.3023256 24.4444444,29.7674419 C24.3518519,30.2325581 23.9814815,30.6046512 23.5185185,30.6046512 C23.5185185,30.6046512 23.4259259,30.6046512 23.4259259,30.6046512 L21.1111111,30.2325581 L18.6111111,32.744186 L19.6296296,32.9302326 C20.0925926,32.9302326 20.462963,33.4883721 20.3703704,33.9534884 C20.2777778,34.4186047 19.9074074,34.7906977 19.4444444,34.7906977 C19.4444444,34.7906977 19.3518519,34.7906977 19.3518519,34.7906977 L17.037037,34.4186047 L11.8518519,39.627907 C11.8518519,39.627907 11.7592593,39.7209302 11.7592593,39.7209302 L5.92592593,43.9069767 C5.74074074,44 5.55555556,44.0930233 5.37037037,44.0930233 C5.09259259,44.0930233 4.90740741,44 4.72222222,43.8139535 L3.42592593,42.5116279 C3.14814815,42.1395349 3.05555556,41.6744186 3.33333333,41.3023256 L7.5,35.4418605 Z M37.8703704,3.34883721 L36.6666667,6.23255814 L40.7407407,10.3255814 L43.7037037,9.20930233 L37.8703704,3.34883721 Z M36.6666667,8.8372093 L25.9259259,19.5348837 L28.8888889,20 L38.3333333,10.5116279 L36.6666667,8.8372093 Z M24.3518519,21.2093023 L21.8518519,23.7209302 L24.7222222,24.1860465 L27.2222222,21.6744186 L24.3518519,21.2093023 Z M20.1851852,25.3023256 L17.6851852,27.8139535 L20.5555556,28.2790698 L23.0555556,25.7674419 L20.1851852,25.3023256 Z M16.0185185,29.4883721 L13.5185185,32 L16.3888889,32.4651163 L18.8888889,29.9534884 L16.0185185,29.4883721 Z M11.9444444,33.5813953 L9.07407407,36.6511628 L5.37037037,41.7674419 L5.55555556,41.9534884 L10.6481481,38.2325581 L14.8148148,34.0465116 L11.9444444,33.5813953 Z M0.833333333,53.3023256 C1.01851852,53.1162791 1.2962963,52.9302326 1.11111111,53.0232558 L6.2962963,53.3023256 C6.66666667,53.3023256 7.03703704,53.4883721 7.12962963,53.8604651 L7.31481481,54.2325581 L18.5185185,49.8604651 L17.6851852,49.3023256 C17.2222222,49.0232558 17.1296296,48.4651163 17.4074074,48 C17.6851852,47.5348837 18.2407407,47.4418605 18.7037037,47.7209302 L20.7407407,49.0232558 L24.0740741,47.7209302 L23.2407407,47.1627907 C22.7777778,46.8837209 22.6851852,46.3255814 22.962963,45.8604651 C23.2407407,45.3953488 23.7962963,45.3023256 24.2592593,45.5813953 L26.2962963,46.8837209 L29.6296296,45.5813953 L28.7962963,45.0232558 C28.3333333,44.744186 28.2407407,44.1860465 28.5185185,43.7209302 C28.7962963,43.255814 29.3518519,43.1627907 29.8148148,43.4418605 L31.8518519,44.744186 L35.1851852,43.4418605 L34.3518519,42.8837209 C33.8888889,42.6046512 33.7962963,42.0465116 34.0740741,41.5813953 C34.3518519,41.1162791 34.9074074,41.0232558 35.3703704,41.3023256 L37.4074074,42.6046512 L44.2592593,39.9069767 C44.3518519,39.9069767 44.3518519,39.9069767 44.4444444,39.9069767 L51.4814815,38.5116279 C51.8518519,38.4186047 52.3148148,38.6046512 52.5,39.0697674 L53.2407407,40.4651163 C53.4259259,40.8372093 53.2407407,41.3953488 52.8703704,41.5813953 L46.6666667,45.2093023 C46.6666667,45.3023256 46.6666667,45.3023256 46.5740741,45.3023256 L43.8888889,46.3255814 L44.8148148,46.9767442 C45.2777778,47.255814 45.3703704,47.8139535 45.0925926,48.2790698 C45,48.5581395 44.6296296,48.744186 44.3518519,48.744186 C44.2592593,48.744186 44.0740741,48.6511628 43.8888889,48.5581395 L41.7592593,47.255814 L38.4259259,48.5581395 L39.3518519,49.2093023 C39.8148148,49.4883721 39.9074074,50.0465116 39.6296296,50.5116279 C39.537037,50.7906977 39.1666667,50.9767442 38.8888889,50.9767442 C38.7962963,50.9767442 38.6111111,50.8837209 38.4259259,50.7906977 L36.2962963,49.4883721 L32.962963,50.7906977 L33.8888889,51.4418605 C34.3518519,51.7209302 34.4444444,52.2790698 34.1666667,52.744186 C34.0740741,53.0232558 33.7037037,53.2093023 33.4259259,53.2093023 C33.3333333,53.2093023 33.1481481,53.1162791 32.962963,53.0232558 L30.8333333,51.7209302 L27.5,53.0232558 L28.4259259,53.6744186 C28.8888889,53.9534884 28.9814815,54.5116279 28.7037037,54.9767442 C28.6111111,55.255814 28.2407407,55.4418605 27.962963,55.4418605 C27.8703704,55.4418605 27.6851852,55.3488372 27.5,55.255814 L25.3703704,53.9534884 L9.81481481,59.8139535 L10,60.1860465 C10.1851852,60.5581395 10.0925926,60.9302326 9.81481481,61.2093023 L6.2037037,64.8372093 C6.01851852,65.0232558 5.83333333,65.1162791 5.55555556,65.1162791 C5.46296296,65.1162791 5.46296296,65.1162791 5.37037037,65.1162791 C5.09259259,65.0232558 4.81481481,64.8372093 4.72222222,64.5581395 L0.740740741,54.1395349 C0.648148148,53.8604651 0.648148148,53.5813953 0.833333333,53.3023256 Z M44.9074074,41.7674419 L39.3518519,43.8139535 L41.8518519,45.3953488 L45.7407407,43.9069767 L51.2037037,40.744186 L51.1111111,40.4651163 L44.9074074,41.7674419 Z M37.2222222,44.744186 L33.8888889,46.0465116 L36.3888889,47.627907 L39.7222222,46.3255814 L37.2222222,44.744186 Z M31.8518519,46.8837209 L28.5185185,48.1860465 L31.0185185,49.7674419 L34.3518519,48.4651163 L31.8518519,46.8837209 Z M26.3888889,49.0232558 L23.0555556,50.2325581 L25.5555556,51.9069767 L28.8888889,50.6046512 L26.3888889,49.0232558 Z M20.9259259,51.0697674 L8.51851852,55.9069767 L9.35185185,58.1395349 L23.4259259,52.6511628 L20.9259259,51.0697674 Z M6.11111111,55.0697674 L2.96296296,54.8837209 L5.92592593,62.6976744 L8.14814815,60.4651163 L6.11111111,55.0697674 Z M60.1851852,16.4651163 C60.0925926,16.8372093 59.9074074,17.1162791 59.4444444,17.3023256 L59.0740741,17.4883721 L63.0555556,28.8372093 L63.6111111,28 C63.8888889,27.5348837 64.4444444,27.4418605 64.9074074,27.7209302 C65.3703704,28 65.462963,28.5581395 65.1851852,29.0232558 L63.8888889,30.9767442 L65,34.3255814 L65.5555556,33.4883721 C65.8333333,33.0232558 66.3888889,32.9302326 66.8518519,33.2093023 C67.3148148,33.4883721 67.4074074,34.0465116 67.1296296,34.5116279 L65.8333333,36.4651163 L67.037037,39.8139535 L67.5925926,38.9767442 C67.8703704,38.5116279 68.4259259,38.4186047 68.8888889,38.6976744 C69.3518519,38.9767442 69.4444444,39.5348837 69.1666667,40 L67.8703704,41.9534884 L69.0740741,45.3023256 L69.6296296,44.4651163 C69.9074074,44 70.462963,43.9069767 70.9259259,44.1860465 C71.3888889,44.4651163 71.4814815,45.0232558 71.2037037,45.4883721 L69.9074074,47.4418605 L72.4074074,54.4186047 C72.4074074,54.5116279 72.4074074,54.5116279 72.4074074,54.6046512 L73.7037037,61.6744186 C73.7962963,62.1395349 73.6111111,62.5116279 73.1481481,62.6976744 L71.3888889,63.3488372 C71.2962963,63.4418605 71.2037037,63.4418605 71.1111111,63.4418605 C70.7407407,63.4418605 70.462963,63.255814 70.2777778,62.9767442 L66.8518519,56.6511628 C66.7592593,56.6511628 66.7592593,56.6511628 66.7592593,56.5581395 L65.8333333,53.8604651 L65.1851852,54.7906977 C65,54.9767442 64.7222222,55.1627907 64.4444444,55.1627907 C64.2592593,55.1627907 64.0740741,55.0697674 63.8888889,54.9767442 C63.4259259,54.6976744 63.3333333,54.1395349 63.6111111,53.6744186 L65,51.627907 L63.7962963,48.2790698 L63.1481481,49.2093023 C62.962963,49.3953488 62.6851852,49.5813953 62.4074074,49.5813953 C62.2222222,49.5813953 62.037037,49.4883721 61.8518519,49.3953488 C61.3888889,49.1162791 61.2962963,48.5581395 61.5740741,48.0930233 L62.962963,46.0465116 L61.7592593,42.6976744 L61.1111111,43.627907 C60.9259259,43.8139535 60.6481481,44 60.3703704,44 C60.1851852,44 60,43.9069767 59.8148148,43.8139535 C59.3518519,43.5348837 59.2592593,42.9767442 59.537037,42.5116279 L60.9259259,40.4651163 L59.7222222,37.1162791 L59.0740741,38.0465116 C58.8888889,38.2325581 58.6111111,38.4186047 58.3333333,38.4186047 C58.1481481,38.4186047 57.962963,38.3255814 57.7777778,38.2325581 C57.3148148,37.9534884 57.2222222,37.3953488 57.5,36.9302326 L58.8888889,34.8837209 L53.3333333,19.255814 L52.962963,19.4418605 C52.8703704,19.5348837 52.7777778,19.5348837 52.6851852,19.5348837 C52.5,19.5348837 52.2222222,19.4418605 52.037037,19.255814 L48.5185185,15.5348837 C48.3333333,15.3488372 48.3333333,14.9767442 48.3333333,14.6976744 C48.3333333,14.4186047 48.6111111,14.1395349 48.8888889,14.0465116 L59.3518519,10.3255814 C59.6296296,10.1395349 59.9074074,10.2325581 60.1851852,10.4186047 C60.462963,10.6046512 60.5555556,10.9767442 60.5555556,11.255814 L60.1851852,16.4651163 Z M52.962963,17.6744186 L58.3333333,15.7209302 L58.6111111,12.5581395 L50.8333333,15.3488372 L52.962963,17.6744186 Z M70.462963,55.0697674 L68.5185185,49.3953488 L66.8518519,51.8139535 L68.2407407,55.8139535 L71.2962963,61.3953488 L71.5740741,61.3023256 L70.462963,55.0697674 Z M67.6851852,47.255814 L66.4814815,43.9069767 L64.8148148,46.3255814 L66.0185185,49.6744186 L67.6851852,47.255814 Z M65.7407407,41.7674419 L64.6296296,38.4186047 L62.962963,40.8372093 L64.0740741,44.1860465 L65.7407407,41.7674419 Z M63.7962963,36.1860465 L62.6851852,32.9302326 L61.0185185,35.3488372 L62.1296296,38.6046512 L63.7962963,36.1860465 Z M61.8518519,30.6976744 L57.3148148,17.9534884 L55.0925926,18.7906977 L60.1851852,33.1162791 L61.8518519,30.6976744 Z M67.037037,76.2790698 C66.7592593,76 66.5740741,75.627907 66.6666667,75.3488372 L66.4814815,75.255814 L54.7222222,73.1162791 L55.1851852,74.0465116 C55.3703704,74.5116279 55.1851852,75.0697674 54.7222222,75.255814 C54.6296296,75.3488372 54.4444444,75.3488372 54.3518519,75.3488372 C53.9814815,75.3488372 53.7037037,75.1627907 53.5185185,74.7906977 L52.5,72.6511628 L48.9814815,72 L49.4444444,72.9302326 C49.6296296,73.3953488 49.4444444,73.9534884 48.9814815,74.1395349 C48.8888889,74.2325581 48.7037037,74.2325581 48.6111111,74.2325581 C48.2407407,74.2325581 47.962963,74.0465116 47.7777778,73.6744186 L46.7592593,71.5348837 L43.2407407,70.8837209 L43.7037037,71.8139535 C43.8888889,72.2790698 43.7037037,72.8372093 43.2407407,73.0232558 C43.1481481,73.1162791 42.962963,73.1162791 42.8703704,73.1162791 C42.5,73.1162791 42.2222222,72.9302326 42.037037,72.5581395 L41.0185185,70.4186047 L37.5,69.7674419 L37.962963,70.6976744 C38.1481481,71.1627907 37.962963,71.7209302 37.5,71.9069767 C37.4074074,72 37.2222222,72 37.1296296,72 C36.7592593,72 36.4814815,71.8139535 36.2962963,71.4418605 L35.2777778,69.3023256 L28.0555556,68 C27.962963,68 27.962963,68 27.8703704,68 L21.1111111,65.5813953 C20.6481481,65.4883721 20.3703704,65.0232558 20.462963,64.5581395 L20.8333333,62.6976744 C20.9259259,62.2325581 21.2962963,61.9534884 21.7592593,61.9534884 L28.8888889,62.0465116 C28.9814815,62.0465116 28.9814815,62.0465116 29.0740741,62.0465116 L31.9444444,62.5116279 L31.4814815,61.4883721 C31.2962963,61.0232558 31.4814815,60.4651163 31.9444444,60.1860465 C32.4074074,60 32.962963,60.1860465 33.1481481,60.6511628 L34.2592593,62.8837209 L37.5925926,63.255814 L37.1296296,62.2325581 C36.9444444,61.7674419 37.1296296,61.2093023 37.5925926,61.0232558 C38.0555556,60.8372093 38.6111111,61.0232558 38.7962963,61.4883721 L39.9074074,63.7209302 L43.4259259,64.372093 L42.962963,63.3488372 C42.7777778,62.8837209 42.962963,62.3255814 43.4259259,62.1395349 C43.8888889,61.9534884 44.4444444,62.1395349 44.6296296,62.6046512 L45.7407407,64.8372093 L49.2592593,65.4883721 L48.7962963,64.4651163 C48.6111111,64 48.7962963,63.4418605 49.2592593,63.255814 C49.7222222,63.0697674 50.2777778,63.255814 50.462963,63.7209302 L51.5740741,65.9534884 L67.7777778,68.8372093 L67.8703704,68.4651163 C67.8703704,68.0930233 68.1481481,67.8139535 68.5185185,67.7209302 L73.6111111,66.6046512 C73.8888889,66.5116279 74.2592593,66.6046512 74.4444444,66.7906977 C74.6296296,66.9767442 74.8148148,67.3488372 74.7222222,67.627907 L72.7777778,78.6046512 C72.6851852,78.8837209 72.5,79.1627907 72.2222222,79.255814 C72.1296296,79.3488372 71.9444444,79.3488372 71.8518519,79.3488372 C71.6666667,79.3488372 71.4814815,79.255814 71.2962963,79.1627907 L67.037037,76.2790698 Z M72.5925926,68.5581395 L69.537037,69.3023256 L68.5185185,74.9767442 L71.1111111,76.744186 L72.5925926,68.5581395 Z M28.5185185,66.1395349 L34.3518519,67.1627907 L33.0555556,64.5581395 L28.9814815,63.8139535 L22.6851852,63.7209302 L22.5925926,64 L28.5185185,66.1395349 Z M36.6666667,67.627907 L40.1851852,68.2790698 L38.8888889,65.6744186 L35.3703704,65.0232558 L36.6666667,67.627907 Z M42.4074074,68.6511628 L45.9259259,69.3023256 L44.6296296,66.6976744 L41.1111111,66.0465116 L42.4074074,68.6511628 Z M48.1481481,69.6744186 L51.6666667,70.2325581 L50.3703704,67.627907 L46.8518519,66.9767442 L48.1481481,69.6744186 Z M53.8888889,70.6976744 L67.037037,73.1162791 L67.4074074,70.7906977 L52.5925926,68.0930233 L53.8888889,70.6976744 Z"/>
</svg>
