<svg xmlns="http://www.w3.org/2000/svg" width="30" height="30" viewBox="0 0 30 30">
  <path fill="#FFF" fill-rule="evenodd" d="M15,30 C6.71572875,30 6.75015599e-14,23.2842712 6.75015599e-14,15 C6.75015599e-14,6.71572875 6.71572875,1.77635684e-15 15,1.77635684e-15 C23.2842712,1.77635684e-15 30,6.71572875 30,15 C30,23.2842712 23.2842712,30 15,30 Z M21.4,9 L8.6,9 C7.72,9 7.008,9.675 7.008,10.5 L7,19.5 C7,20.325 7.72,21 8.6,21 L21.4,21 C22.28,21 23,20.325 23,19.5 L23,10.5 C23,9.675 22.28,9 21.4,9 Z M21.4,12 L15,15.75 L8.6,12 L8.6,10.5 L15,14.25 L21.4,10.5 L21.4,12 Z"/>
</svg>
