<?xml version="1.0" standalone="no"?>
<!DOCTYPE svg PUBLIC "-//W3C//DTD SVG 20010904//EN"
 "http://www.w3.org/TR/2001/REC-SVG-20010904/DTD/svg10.dtd">
<svg version="1.0" xmlns="http://www.w3.org/2000/svg"
 width="640.000000pt" height="640.000000pt" viewBox="0 0 640.000000 640.000000"
 preserveAspectRatio="xMidYMid meet">
<metadata>
Created by potrace 1.11, written by Peter Selinger 2001-2013
</metadata>
<g transform="translate(0.000000,640.000000) scale(0.100000,-0.100000)"
fill="#000000" stroke="none">
<path d="M3126 6329 c-14 -11 -26 -24 -26 -29 0 -5 -5 -21 -12 -37 -6 -15 -12
-30 -13 -33 -1 -3 -5 -14 -10 -25 -4 -11 -26 -67 -47 -125 -22 -58 -45 -119
-53 -135 -18 -42 -12 -102 10 -119 17 -12 17 -15 4 -28 -34 -36 -340 -356
-369 -388 -39 -42 -277 -293 -415 -437 -98 -103 -101 -105 -137 -99 -194 31
-231 26 -243 -33 -11 -58 34 -90 138 -100 5 -1 -35 -46 -90 -101 l-98 -100
-45 6 c-25 3 -56 8 -70 10 -91 17 -125 16 -148 -6 -20 -19 -23 -29 -17 -59 8
-44 24 -57 78 -66 23 -4 46 -10 51 -12 4 -3 -36 -49 -89 -103 l-97 -98 -67 6
c-168 14 -195 7 -204 -53 -6 -38 21 -74 60 -80 15 -3 37 -6 48 -9 11 -2 24 -5
29 -5 4 -1 -36 -46 -90 -101 l-99 -101 -40 7 c-22 4 -53 9 -70 10 -55 7 -84
12 -93 18 -15 9 -75 -37 -78 -59 -6 -34 17 -75 45 -82 37 -10 38 -10 66 -12
14 0 25 -5 25 -9 0 -5 -34 -44 -76 -88 -42 -43 -146 -177 -232 -297 -178 -247
-201 -283 -197 -306 2 -9 4 -21 4 -27 1 -15 130 -142 151 -149 20 -6 71 14
110 44 23 18 170 124 215 156 157 110 234 176 421 364 131 131 216 210 225
207 22 -8 68 -15 140 -22 63 -6 66 -6 87 21 44 56 8 125 -64 125 -18 0 -36 5
-39 10 -3 6 36 53 88 105 102 103 96 101 193 80 11 -2 42 -7 70 -10 43 -6 52
-4 72 18 51 55 27 119 -49 131 -23 4 -46 9 -50 12 -5 3 36 49 90 103 l99 99
49 -10 c26 -5 66 -11 87 -14 22 -2 41 -6 44 -8 2 -3 16 0 31 5 36 13 61 57 50
87 -5 12 -5 22 -1 22 14 0 -42 33 -62 36 -11 2 -30 5 -41 8 -11 2 -23 5 -26 5
-4 1 37 45 89 99 110 111 90 106 264 77 77 -13 128 53 91 116 -10 16 -26 29
-38 30 -26 1 -79 9 -83 13 -1 2 148 155 333 341 l336 337 23 -21 c32 -30 58
-27 182 22 60 24 153 61 207 82 109 42 134 67 117 117 -8 26 -651 669 -678
679 -32 12 -36 12 -66 -12z m538 -675 c-16 -7 -68 -28 -116 -47 l-87 -34 -166
166 c-99 100 -162 170 -157 176 5 6 17 33 27 60 10 28 29 74 43 103 l24 53
230 -233 231 -232 -29 -12z m-404 -95 c0 -3 -168 -175 -374 -382 -305 -306
-379 -375 -398 -372 -12 1 -43 6 -68 10 -63 11 -82 13 -107 14 -13 1 -23 6
-23 13 0 7 190 201 421 431 l422 419 63 -63 c35 -35 64 -66 64 -70z m-1005
-873 c11 -3 41 -8 68 -12 26 -3 47 -9 47 -12 0 -14 -202 -202 -211 -197 -5 4
-20 8 -32 10 -12 1 -42 6 -67 10 -56 10 -81 13 -100 14 -8 1 30 46 85 102
l100 100 45 -6 c25 -3 54 -7 65 -9z m-382 -321 c31 -3 107 -15 141 -22 28 -5
28 -6 -70 -104 -109 -110 -91 -102 -199 -85 -11 2 -42 7 -70 11 -27 4 -52 9
-53 10 -2 2 40 48 95 103 71 73 103 99 116 95 11 -3 29 -6 40 -8z m-280 -341
c23 -3 49 -8 57 -9 8 -2 23 -4 33 -4 10 -1 17 -5 15 -11 -7 -21 -190 -199
-201 -195 -11 3 -131 22 -180 29 -10 1 -18 6 -19 11 -1 5 39 50 88 101 98 102
81 96 207 78z m-306 -333 c17 -5 33 -7 36 -5 2 3 16 0 31 -5 26 -10 23 -13
-145 -181 -95 -94 -192 -185 -218 -202 -25 -18 -52 -38 -61 -45 -72 -59 -282
-203 -289 -198 -6 3 24 52 65 108 41 56 103 143 138 192 73 103 69 98 206 245
l103 111 51 -5 c28 -3 65 -10 83 -15z"/>
<path d="M4720 5493 c-129 -46 -239 -86 -245 -87 -5 -2 -17 -6 -25 -9 -8 -4
-87 -32 -175 -62 -197 -69 -205 -73 -205 -125 0 -42 -8 -32 173 -224 22 -23
55 -59 75 -80 19 -22 51 -48 70 -57 31 -16 37 -16 57 -3 20 13 23 13 28 -3 3
-10 24 -70 47 -133 23 -63 43 -119 44 -125 2 -5 6 -17 9 -25 13 -35 53 -146
108 -305 33 -93 63 -177 66 -185 4 -8 7 -18 8 -22 2 -5 3 -9 5 -10 1 -2 3 -12
5 -23 2 -10 8 -28 14 -40 5 -11 33 -85 61 -165 28 -80 56 -157 62 -172 9 -23
3 -36 -51 -117 -67 -100 -75 -134 -38 -168 43 -40 93 -30 128 27 13 22 28 38
34 36 8 -2 38 -78 82 -209 l16 -47 -59 -88 c-33 -48 -61 -97 -62 -109 -4 -32
13 -58 48 -73 41 -17 70 -3 109 50 l30 42 16 -37 c8 -21 15 -40 15 -44 0 -3
13 -40 30 -81 16 -41 29 -84 30 -95 0 -16 -57 -113 -80 -135 -3 -3 -13 -19
-22 -36 -29 -51 -5 -107 50 -117 36 -7 55 5 97 60 19 25 35 40 35 33 0 -7 20
-69 45 -137 l45 -125 -22 -31 c-12 -18 -26 -33 -30 -35 -4 -2 -8 -8 -8 -14 0
-5 -10 -24 -23 -41 -36 -49 -45 -79 -35 -106 22 -60 87 -69 136 -18 18 18 32
39 32 46 0 7 5 11 11 9 7 -2 26 -46 44 -98 18 -52 43 -115 57 -140 74 -133
199 -364 244 -451 20 -37 50 -62 76 -61 33 0 183 59 200 80 16 18 17 61 2 123
-4 19 -8 41 -10 49 -1 8 -4 32 -8 54 -3 21 -8 46 -10 55 -3 9 -7 32 -10 51 -6
39 -10 57 -32 175 -8 44 -17 95 -20 114 -3 19 -19 71 -36 115 -36 98 -129 357
-132 371 -5 19 -17 50 -27 68 -7 13 2 34 41 92 77 114 87 160 39 185 -55 30
-87 19 -125 -42 l-27 -42 -13 35 c-7 19 -29 79 -48 134 l-37 100 54 80 c71
105 76 127 38 166 -21 20 -37 28 -53 25 -13 -3 -26 -5 -30 -5 -4 -1 -23 -22
-42 -47 -23 -30 -37 -41 -40 -33 -3 8 -23 67 -46 131 l-42 118 39 60 c76 121
84 139 68 169 -13 26 -48 48 -70 46 -23 -2 -55 -17 -55 -25 0 -5 -6 -15 -13
-22 -7 -7 -18 -22 -24 -33 -14 -23 -8 -35 -62 128 l-40 118 60 91 c58 88 62
104 44 150 -4 10 -21 22 -39 27 -41 11 -77 -8 -105 -55 -12 -20 -24 -35 -26
-32 -3 2 -29 75 -60 161 -30 86 -59 166 -65 177 -6 11 -9 20 -7 20 3 0 -11 42
-30 93 -18 50 -36 99 -38 107 -2 8 -27 80 -55 160 -69 191 -67 182 -30 198 50
22 55 39 65 193 5 92 10 153 19 264 5 62 -25 106 -71 104 -10 0 -124 -39 -253
-86z m164 -145 c-9 -127 -17 -194 -25 -204 -5 -6 -28 -16 -51 -23 -24 -7 -70
-23 -103 -36 -33 -13 -107 -40 -164 -61 l-103 -38 -47 51 c-93 102 -122 136
-119 138 2 1 62 23 133 48 126 44 307 109 410 147 71 26 72 26 69 -22z m-47
-530 c28 -79 88 -246 133 -373 44 -126 84 -237 87 -245 3 -8 7 -22 9 -30 2 -8
7 -23 13 -35 6 -11 23 -59 40 -106 l29 -86 -65 -93 c-65 -91 -66 -92 -79 -69
-7 13 -13 32 -14 42 0 9 -4 25 -10 35 -5 9 -30 76 -56 147 -25 72 -58 166 -74
210 -15 44 -49 139 -75 210 -26 72 -48 135 -49 140 -1 6 -4 15 -7 20 -5 8 -30
76 -34 95 -1 3 -4 12 -7 20 -48 128 -69 192 -66 195 6 6 152 63 163 64 6 1 34
-63 62 -141z m423 -1185 c35 -104 39 -126 29 -145 -23 -43 -114 -168 -123
-168 -5 0 -6 3 -3 7 4 3 3 11 -1 17 -5 6 -15 31 -22 56 -7 25 -18 51 -23 58
-5 6 -7 12 -4 12 3 0 -3 23 -13 52 l-18 52 31 46 c18 25 35 47 40 48 4 2 7 10
7 18 0 8 3 14 8 14 4 0 15 14 25 31 10 18 19 30 21 28 3 -2 23 -59 46 -126z
m158 -452 l41 -123 -66 -96 -67 -95 -44 132 -44 133 63 94 c35 51 66 90 70 86
3 -4 25 -63 47 -131z m141 -408 c19 -54 39 -109 46 -123 12 -22 8 -32 -54
-123 l-66 -98 -19 42 c-10 24 -19 47 -20 53 -1 6 -4 16 -7 21 -3 6 -16 42 -29
81 l-23 70 59 87 c32 47 64 86 70 87 5 0 25 -44 43 -97z m205 -565 c43 -128
80 -245 81 -260 2 -14 6 -39 9 -55 14 -62 16 -78 31 -173 1 -8 7 -40 13 -70 6
-30 14 -72 16 -92 3 -21 7 -43 8 -49 6 -25 -21 -19 -34 8 -8 15 -29 54 -46 85
-17 31 -42 76 -55 100 -93 171 -111 204 -117 213 -4 6 -33 83 -64 173 -50 143
-55 165 -44 185 20 36 112 166 118 167 3 0 40 -105 84 -232z"/>
<path d="M4220 3300 c-47 -10 -98 -21 -115 -24 -16 -3 -55 -10 -85 -16 -30 -6
-66 -13 -80 -14 -14 -2 -43 -9 -65 -15 -22 -5 -61 -13 -87 -16 -38 -5 -181
-57 -343 -124 -85 -35 -182 -71 -192 -71 -7 0 -13 -5 -13 -12 0 -6 -3 -8 -6
-5 -4 3 -14 2 -23 -2 -12 -7 -41 6 -111 50 -101 63 -106 65 -144 48 -25 -12
-34 -26 -42 -65 -4 -23 30 -66 75 -94 23 -15 20 -17 -100 -65 -122 -48 -160
-56 -167 -35 -2 5 -8 10 -13 10 -6 0 -37 18 -69 40 -74 50 -114 57 -147 24
-25 -25 -30 -69 -10 -94 7 -9 27 -26 45 -39 18 -13 31 -26 28 -28 -3 -3 -60
-27 -127 -54 -137 -54 -118 -55 -232 19 -42 27 -82 45 -99 45 -48 0 -76 -41
-69 -100 0 -7 22 -28 47 -47 l46 -36 -28 -10 c-16 -6 -75 -29 -132 -51 l-103
-40 -80 51 c-43 28 -89 54 -101 59 -53 19 -109 -36 -94 -93 3 -13 26 -37 51
-54 l46 -30 -133 -52 c-73 -29 -214 -84 -313 -122 -99 -39 -239 -94 -312 -123
-130 -52 -153 -55 -153 -18 0 7 -10 17 -21 24 -25 13 -49 16 -219 24 -69 4
-149 8 -179 10 -46 3 -57 0 -78 -21 -17 -17 -22 -31 -18 -47 6 -21 86 -237
106 -286 5 -13 30 -78 55 -145 25 -66 56 -148 69 -181 13 -33 41 -104 62 -159
24 -62 46 -104 60 -113 27 -18 78 -9 93 15 5 9 10 13 10 7 0 -5 4 -4 9 3 5 8
69 75 143 150 96 97 137 146 142 169 4 18 3 34 -3 38 -22 13 -10 34 26 46 21
6 44 16 51 22 6 5 12 7 12 4 0 -3 26 5 57 17 32 13 67 27 78 31 11 4 47 18 80
30 33 12 200 75 370 140 355 134 453 171 513 192 l43 15 82 -50 c127 -77 123
-75 156 -56 32 19 49 71 33 99 -4 9 -29 31 -55 49 l-47 34 32 13 c18 8 35 14
38 15 3 0 19 6 35 13 17 6 60 23 97 38 l66 25 89 -54 c112 -69 120 -72 150
-53 58 39 45 112 -28 153 -22 13 -39 25 -37 28 3 2 62 27 133 54 l128 51 91
-55 c50 -30 101 -57 113 -61 33 -9 73 34 73 79 0 30 -7 39 -51 72 l-52 38 29
12 c16 7 63 26 104 42 41 16 84 33 95 37 35 14 44 14 67 -4 45 -33 167 -101
183 -101 25 0 65 50 65 81 0 20 -13 38 -52 72 -38 32 -49 47 -38 51 94 30 205
77 245 103 27 18 53 33 58 33 4 0 13 5 20 11 7 6 95 58 196 117 101 59 192
118 203 132 23 31 14 62 -41 155 -33 54 -40 60 -71 62 -19 1 -73 -7 -120 -17z
m70 -154 c0 -7 -8 -16 -17 -20 -17 -5 -47 -22 -103 -57 -22 -14 -87 -52 -265
-155 -27 -15 -52 -29 -55 -30 -3 0 -14 -4 -25 -9 -37 -14 -139 -53 -210 -80
l-69 -26 -28 21 c-15 11 -30 20 -33 20 -3 0 -35 20 -71 44 l-66 44 39 12 c21
7 72 25 113 41 231 88 295 107 515 155 271 59 275 59 275 40z m-1013 -389
l101 -63 -87 -33 c-47 -18 -95 -37 -106 -42 -48 -21 -79 -29 -84 -22 -3 4 -22
17 -41 27 -19 11 -59 35 -89 54 l-54 35 34 17 c19 10 37 16 41 13 5 -2 8 1 8
6 0 6 10 11 23 11 13 0 27 4 33 9 7 8 96 46 114 50 3 1 51 -27 107 -62z m-424
-175 c82 -50 100 -72 58 -72 -9 0 -21 -4 -26 -9 -6 -4 -53 -25 -106 -45 l-97
-37 -93 59 c-52 32 -94 62 -94 67 0 4 18 14 40 22 22 7 49 17 60 22 64 29 151
58 160 53 6 -3 49 -30 98 -60z m-440 -170 c92 -57 99 -73 39 -85 -15 -3 -45
-14 -67 -23 -22 -10 -42 -18 -45 -19 -3 0 -26 -9 -51 -19 l-46 -17 -96 63
c-53 35 -96 65 -96 68 -1 9 253 97 264 92 6 -3 50 -29 98 -60z m-443 -159 c50
-31 90 -60 90 -65 0 -5 -8 -11 -17 -14 -24 -8 -171 -64 -208 -79 -16 -7 -64
-25 -105 -40 -41 -16 -81 -32 -87 -38 -7 -5 -13 -6 -13 -2 0 4 -6 3 -12 -2 -7
-5 -33 -17 -58 -26 -25 -9 -58 -22 -75 -28 -16 -7 -32 -13 -35 -14 -3 -1 -14
-5 -25 -10 -29 -12 -339 -133 -413 -161 l-63 -23 -11 27 c-17 43 -25 64 -42
109 l-15 41 72 27 c82 31 93 36 347 134 102 40 194 76 205 81 11 5 85 34 165
65 80 30 154 60 165 65 34 15 42 12 135 -47z m-1320 -256 c40 0 32 16 134
-257 26 -69 52 -136 57 -149 6 -15 6 -28 -1 -36 -26 -31 -161 -167 -163 -164
-10 17 -31 65 -51 119 -13 36 -52 139 -86 230 -73 192 -100 264 -100 267 0 2
39 0 88 -4 48 -3 103 -6 122 -6z"/>
<path d="M2748 1580 c-9 -6 -21 -25 -28 -44 -9 -28 -7 -41 10 -81 11 -26 19
-49 18 -50 -2 -2 -43 4 -93 12 -92 15 -239 21 -562 25 -171 2 -184 1 -202 -17
-11 -11 -22 -31 -25 -45 -21 -109 -29 -147 -31 -160 -5 -34 27 -58 118 -90 51
-17 101 -35 112 -40 11 -5 40 -15 65 -23 73 -24 223 -78 245 -87 28 -12 57
-20 96 -25 19 -3 45 -7 59 -10 14 -3 41 -8 60 -10 19 -3 46 -8 60 -11 14 -3
34 -8 45 -10 46 -8 204 -36 263 -46 l64 -11 49 -102 c48 -102 60 -114 110
-115 26 0 59 39 59 71 0 16 -9 47 -19 68 l-20 38 22 -2 c35 -5 189 -35 227
-45 33 -9 40 -17 80 -104 26 -58 52 -99 66 -106 32 -18 72 -4 94 32 18 29 18
34 3 67 -27 64 -28 74 -6 67 11 -4 58 -13 104 -22 46 -8 91 -17 99 -19 8 -2
23 -4 32 -4 12 -1 34 -35 68 -105 44 -92 54 -105 80 -111 38 -8 77 15 86 51 4
17 0 44 -14 75 l-20 49 21 -5 c12 -3 33 -7 47 -9 14 -2 66 -12 117 -21 l92
-17 51 -104 c28 -57 56 -105 63 -105 7 -1 23 -3 36 -4 31 -3 71 36 71 70 0 14
-9 44 -21 66 l-20 41 28 -6 c38 -8 77 -15 143 -26 30 -6 66 -12 80 -15 27 -6
27 -6 195 -36 61 -10 121 -21 135 -24 14 -3 50 -9 80 -15 30 -6 66 -12 80 -15
14 -3 39 -7 55 -10 17 -2 39 -6 50 -8 11 -3 39 -8 63 -12 32 -5 42 -11 42 -26
0 -10 10 -31 23 -45 28 -33 372 -264 393 -264 24 0 52 18 66 43 12 23 21 64
43 207 3 19 7 42 10 50 2 8 6 31 9 50 7 43 15 87 22 122 3 15 7 39 9 55 3 15
14 80 25 143 12 63 23 131 26 150 2 19 6 42 9 50 2 8 7 35 10 60 10 76 -35
107 -122 85 -13 -3 -31 -7 -40 -9 -19 -5 -154 -35 -188 -42 -20 -4 -44 -9 -95
-21 -14 -3 -30 -6 -37 -6 -22 -1 -63 -42 -67 -67 -2 -14 -8 -24 -12 -23 -5 1
-29 4 -54 8 -25 3 -52 8 -60 10 -8 2 -31 7 -50 10 -19 3 -57 10 -85 15 -27 5
-66 12 -85 14 -19 3 -47 8 -62 11 -16 3 -40 7 -55 10 -16 3 -66 12 -113 20
-47 9 -97 18 -110 20 -14 3 -41 8 -60 11 -19 2 -46 7 -60 10 -55 10 -69 13
-101 18 -19 3 -46 8 -61 11 -16 3 -40 7 -55 10 -16 3 -44 8 -63 11 -19 3 -42
7 -50 10 -8 3 -35 8 -60 10 -94 9 -99 12 -152 114 -56 109 -63 117 -101 124
-59 10 -101 -77 -62 -128 8 -11 15 -27 15 -37 0 -15 -6 -16 -72 -3 -40 8 -86
17 -103 19 -101 18 -92 11 -140 106 -57 115 -65 126 -95 130 -38 4 -66 -9 -78
-37 -16 -34 -15 -44 8 -92 25 -51 25 -55 1 -47 -10 3 -33 7 -51 10 -17 2 -43
6 -58 10 -32 6 -54 10 -107 19 -40 7 -42 9 -93 111 -55 109 -81 132 -128 114
-50 -18 -61 -68 -29 -130 23 -43 19 -50 -22 -44 -92 11 -149 17 -182 19 -35 2
-38 6 -86 98 -27 52 -56 103 -64 112 -15 18 -57 21 -83 6z m-171 -293 c5 -3
51 -13 103 -22 128 -22 133 -23 149 -27 12 -2 111 -185 111 -204 0 -4 -17 -3
-37 1 -42 8 -43 8 -168 29 -49 9 -101 18 -115 21 -14 3 -52 10 -85 16 -33 5
-114 30 -180 54 -66 24 -169 61 -230 83 -60 22 -111 45 -113 52 -3 9 61 11
275 7 154 -2 284 -7 290 -10z m573 -112 c47 -9 92 -17 100 -20 8 -2 25 -4 37
-4 18 -1 32 -21 72 -102 28 -55 51 -102 51 -104 0 -4 -58 3 -90 10 -14 3 -36
8 -50 10 -14 3 -50 10 -81 16 l-56 11 -50 99 c-49 97 -53 112 -30 104 7 -3 50
-12 97 -20z m485 -85 c22 -5 56 -12 75 -15 19 -3 42 -8 50 -11 12 -4 76 -121
109 -198 2 -5 -12 -6 -30 -3 -19 4 -47 9 -64 12 -16 2 -41 7 -55 10 -14 3 -41
8 -60 11 -19 3 -43 8 -52 11 -10 2 -40 47 -68 104 l-50 100 52 -6 c29 -4 71
-10 93 -15z m405 -66 c61 -9 74 -12 138 -25 34 -7 62 -16 62 -21 0 -4 20 -49
45 -99 25 -51 45 -94 45 -96 0 -2 -8 -2 -17 1 -10 3 -36 8 -58 11 -23 3 -50 7
-60 9 -11 2 -40 7 -65 11 -79 12 -80 13 -127 113 -25 54 -48 101 -50 105 -3 4
8 5 24 2 15 -3 44 -8 63 -11z m456 -88 c12 -2 38 -7 59 -10 20 -4 40 -8 44
-10 3 -2 30 -7 60 -11 30 -4 63 -9 75 -11 12 -3 30 -6 41 -8 11 -2 58 -10 105
-19 47 -9 99 -19 115 -22 39 -6 134 -24 161 -29 12 -2 37 -7 55 -10 19 -3 43
-7 54 -10 42 -8 110 -20 120 -21 6 -1 54 -9 108 -19 l98 -19 -6 -46 c-15 -122
-22 -140 -48 -135 -12 2 -94 17 -182 34 -88 17 -178 33 -200 35 -22 3 -46 8
-54 11 -8 2 -30 7 -50 10 -20 3 -45 7 -56 9 -210 40 -357 67 -385 70 -78 11
-106 26 -123 63 -9 21 -30 65 -46 100 l-31 63 33 -5 c17 -3 42 -8 53 -10z
m1503 -68 c-5 -24 -11 -54 -13 -68 -3 -13 -8 -40 -11 -60 -3 -20 -7 -45 -9
-55 -19 -101 -38 -205 -42 -230 -7 -58 -32 -176 -37 -182 -7 -6 -195 118 -201
133 -2 7 -1 29 4 50 5 22 18 91 30 154 11 63 22 125 24 136 3 12 7 39 10 60 4
21 10 42 14 46 8 7 197 56 223 57 14 1 15 -5 8 -41z"/>
</g>
</svg>
