<svg xmlns="http://www.w3.org/2000/svg" width="31" height="30" viewBox="0 0 31 30">
  <path fill="#FFF" fill-rule="evenodd" d="M91.9107143,30 C83.5771319,30 76.8214286,23.2842712 76.8214286,15 C76.8214286,6.71572875 83.5771319,1.77635684e-15 91.9107143,1.77635684e-15 C100.244297,1.77635684e-15 107,6.71572875 107,15 C107,23.2842712 100.244297,30 91.9107143,30 Z M101.196429,9.72693136 C100.556478,10.005246 99.865738,10.1941024 99.1445241,10.2736209 C99.8860539,9.83626926 100.444741,9.16036225 100.719005,8.33535811 C100.028265,8.73295047 99.2664194,9.03114473 98.453784,9.18024187 C97.8036756,8.50433486 96.8691449,8.07692308 95.8431926,8.07692308 C93.8725517,8.07692308 92.2675967,9.64741289 92.2675967,11.5757358 C92.2675967,11.8540505 92.2980705,12.1124855 92.3590182,12.3709205 C89.3928988,12.2218234 86.7518336,10.8302502 84.9945095,8.71307085 C84.6897712,9.22994091 84.5069282,9.82632945 84.5069282,10.472417 C84.5069282,11.6850737 85.1367207,12.7585731 86.1017253,13.384781 C85.5125646,13.3649014 84.9640357,13.2058645 84.4866124,12.9474295 L84.4866124,12.9871887 C84.4866124,14.6769562 85.7157235,16.0983489 87.3511523,16.4164228 C87.046414,16.4959412 86.7315178,16.5357005 86.4064636,16.5357005 C86.1728309,16.5357005 85.9493561,16.5158209 85.7360393,16.4760616 C86.1931468,17.8676349 87.5136794,18.8814954 89.0780026,18.901375 C87.8590494,19.835717 86.3150421,20.4022862 84.6389815,20.4022862 C84.3545591,20.4022862 84.0701367,20.3824065 83.7857143,20.3525871 C85.3703534,21.346568 87.2495728,21.9230769 89.2608456,21.9230769 C95.8330347,21.9230769 99.4289465,16.5953393 99.4289465,11.9733282 C99.4289465,11.824231 99.4289465,11.6751339 99.4187885,11.516097 C100.109529,11.0489259 100.719005,10.4326578 101.196429,9.72693136 Z" transform="translate(-76)"/>
</svg>
